<svg xmlns="http://www.w3.org/2000/svg" width="33.684" height="32" viewBox="0 0 33.684 32">
  <path id="icon-piggybank" d="M86.611-848a3.1,3.1,0,0,1-1.874-.674,3.182,3.182,0,0,1-1.2-1.642q-1.053-3.537-1.726-6.126t-1.074-4.547q-.4-1.958-.568-3.474A26.33,26.33,0,0,1,80-867.368a8.939,8.939,0,0,1,2.695-6.569,8.939,8.939,0,0,1,6.568-2.695h8.421a8.562,8.562,0,0,1,2.884-2.442,8.1,8.1,0,0,1,3.853-.926,2.436,2.436,0,0,1,1.789.737,2.436,2.436,0,0,1,.737,1.79,2.077,2.077,0,0,1-.063.505,3.6,3.6,0,0,1-.147.463q-.168.463-.316.926a6.691,6.691,0,0,0-.232,1.01l3.832,3.832H112a1.63,1.63,0,0,1,1.2.484,1.63,1.63,0,0,1,.484,1.2v8.842a1.571,1.571,0,0,1-.316.968,1.9,1.9,0,0,1-.863.632l-3.579,1.179-2.105,7.032a3.324,3.324,0,0,1-1.221,1.747,3.314,3.314,0,0,1-2.021.653h-3.368a3.244,3.244,0,0,1-2.379-.99,3.244,3.244,0,0,1-.989-2.379H93.474a3.244,3.244,0,0,1-.989,2.379,3.244,3.244,0,0,1-2.379.99Zm16.968-16.842a1.63,1.63,0,0,0,1.2-.484,1.63,1.63,0,0,0,.484-1.2,1.63,1.63,0,0,0-.484-1.2,1.63,1.63,0,0,0-1.2-.484,1.63,1.63,0,0,0-1.2.484,1.63,1.63,0,0,0-.484,1.2,1.63,1.63,0,0,0,.484,1.2A1.63,1.63,0,0,0,103.579-864.842Zm-6.737-3.369a1.63,1.63,0,0,0,1.2-.484,1.63,1.63,0,0,0,.484-1.2,1.63,1.63,0,0,0-.484-1.2,1.63,1.63,0,0,0-1.2-.484H91.789a1.63,1.63,0,0,0-1.2.484,1.63,1.63,0,0,0-.484,1.2,1.63,1.63,0,0,0,.484,1.2,1.63,1.63,0,0,0,1.2.484Z" transform="translate(-80 880)" fill="#fefefe"/>
</svg>
