<svg xmlns="http://www.w3.org/2000/svg" width="30" height="19" viewBox="0 0 30 19">
  <g id="icon-menu" transform="translate(-6663 63)">
    <path id="Line_23" data-name="Line 23" d="M27,1.5H0A1.5,1.5,0,0,1-1.5,0,1.5,1.5,0,0,1,0-1.5H27A1.5,1.5,0,0,1,28.5,0,1.5,1.5,0,0,1,27,1.5Z" transform="translate(6664.5 -45.5)" fill="#402ab2"/>
    <path id="Line_21" data-name="Line 21" d="M27,1.5H0A1.5,1.5,0,0,1-1.5,0,1.5,1.5,0,0,1,0-1.5H27A1.5,1.5,0,0,1,28.5,0,1.5,1.5,0,0,1,27,1.5Z" transform="translate(6664.5 -53.5)" fill="#402ab2"/>
    <path id="Line_22" data-name="Line 22" d="M27,1.5H0A1.5,1.5,0,0,1-1.5,0,1.5,1.5,0,0,1,0-1.5H27A1.5,1.5,0,0,1,28.5,0,1.5,1.5,0,0,1,27,1.5Z" transform="translate(6664.5 -61.5)" fill="#402ab2"/>
  </g>
</svg>
