<svg xmlns="http://www.w3.org/2000/svg" width="68.64" height="49.92" viewBox="0 0 68.64 49.92">
  <path id="icon-cash" d="M46.24-750.08a6.009,6.009,0,0,1-4.407-1.833A6.008,6.008,0,0,1,40-756.32v-31.2a3.019,3.019,0,0,1,.9-2.223,3.019,3.019,0,0,1,2.223-.9,3.019,3.019,0,0,1,2.223.9,3.019,3.019,0,0,1,.9,2.223v31.2H96.16a3.019,3.019,0,0,1,2.223.9,3.019,3.019,0,0,1,.9,2.223,3.019,3.019,0,0,1-.9,2.223,3.019,3.019,0,0,1-2.223.9Zm12.48-12.48a6.009,6.009,0,0,1-4.407-1.833A6.008,6.008,0,0,1,52.48-768.8v-24.96a6.008,6.008,0,0,1,1.833-4.407A6.009,6.009,0,0,1,58.72-800H102.4a6.009,6.009,0,0,1,4.407,1.833,6.008,6.008,0,0,1,1.833,4.407v24.96a6.008,6.008,0,0,1-1.833,4.407,6.009,6.009,0,0,1-4.407,1.833Zm6.24-6.24a6.009,6.009,0,0,0-1.833-4.407,6.009,6.009,0,0,0-4.407-1.833v6.24Zm31.2,0h6.24v-6.24a6.009,6.009,0,0,0-4.407,1.833A6.009,6.009,0,0,0,96.16-768.8Zm-15.6-3.12a9.027,9.027,0,0,0,6.63-2.73,9.026,9.026,0,0,0,2.73-6.63,9.026,9.026,0,0,0-2.73-6.63,9.026,9.026,0,0,0-6.63-2.73,9.026,9.026,0,0,0-6.63,2.73,9.026,9.026,0,0,0-2.73,6.63,9.026,9.026,0,0,0,2.73,6.63A9.027,9.027,0,0,0,80.56-771.92Zm-21.84-15.6a6.009,6.009,0,0,0,4.407-1.833,6.009,6.009,0,0,0,1.833-4.407H58.72Zm43.68,0v-6.24H96.16a6.009,6.009,0,0,0,1.833,4.407A6.009,6.009,0,0,0,102.4-787.52Z" transform="translate(-40 800)" fill="#f4f8fb"/>
</svg>
