<svg xmlns="http://www.w3.org/2000/svg" width="23.147" height="23.727" viewBox="0 0 23.147 23.727">
  <g id="icon-arrow-up" transform="translate(-4545.055 318.524)">
    <path id="Path_1172" data-name="Path 1172" d="M4500.585-301.17a1.5,1.5,0,0,1-1.039-.418l-9.035-8.676-9.034,8.676a1.5,1.5,0,0,1-2.121-.043,1.5,1.5,0,0,1,.043-2.121l11.112-10.672,11.113,10.672a1.5,1.5,0,0,1,.043,2.121A1.5,1.5,0,0,1,4500.585-301.17Z" transform="translate(66.117 -4.101)" fill="#a15c26"/>
    <path id="Line_24" data-name="Line 24" d="M0,21.327a1.5,1.5,0,0,1-1.5-1.5V0A1.5,1.5,0,0,1,0-1.5,1.5,1.5,0,0,1,1.5,0V19.827A1.5,1.5,0,0,1,0,21.327Z" transform="translate(4556.628 -316.125)" fill="#a15c26"/>
  </g>
</svg>
