<svg xmlns="http://www.w3.org/2000/svg" width="60.61" height="60.61" viewBox="0 0 60.61 60.61">
  <path id="icon-arrow-downwards" d="M110.305-880a29.359,29.359,0,0,0-13.9,3.334,30.742,30.742,0,0,0-10.493,8.94L98.335-855.3l6.97-5.834a2.857,2.857,0,0,1,2.083-.682,3.027,3.027,0,0,1,2.008.909l13.031,13.031v-4.849a2.932,2.932,0,0,1,.871-2.159,2.932,2.932,0,0,1,2.159-.871,2.932,2.932,0,0,1,2.159.871,2.932,2.932,0,0,1,.871,2.159V-840.6a2.932,2.932,0,0,1-.871,2.159,2.932,2.932,0,0,1-2.159.871H113.336a2.932,2.932,0,0,1-2.159-.871,2.932,2.932,0,0,1-.871-2.159,2.932,2.932,0,0,1,.871-2.159,2.932,2.932,0,0,1,2.159-.871h4.849L107.123-854.7l-6.97,5.834a2.857,2.857,0,0,1-2.083.682,3.027,3.027,0,0,1-2.008-.909L82.727-862.423a31.972,31.972,0,0,0-2.008,6.1A30.3,30.3,0,0,0,80-849.7a29.51,29.51,0,0,0,2.387,11.819,30.6,30.6,0,0,0,6.478,9.622,30.6,30.6,0,0,0,9.622,6.478,29.511,29.511,0,0,0,11.819,2.386,29.511,29.511,0,0,0,11.819-2.386,30.6,30.6,0,0,0,9.622-6.478,30.6,30.6,0,0,0,6.478-9.622A29.51,29.51,0,0,0,140.61-849.7a29.51,29.51,0,0,0-2.387-11.819,30.6,30.6,0,0,0-6.478-9.622,30.6,30.6,0,0,0-9.622-6.478A29.509,29.509,0,0,0,110.305-880Z" transform="translate(-80 880)" fill="#f4f8fb"/>
</svg>
