<svg xmlns="http://www.w3.org/2000/svg" width="60.611" height="58.187" viewBox="0 0 60.611 58.187">
  <path id="icon-speech-bubble" d="M86.061-831.511a5.837,5.837,0,0,1-4.281-1.781A5.836,5.836,0,0,1,80-837.572v-36.366a5.838,5.838,0,0,1,1.78-4.281A5.838,5.838,0,0,1,86.061-880H134.55a5.838,5.838,0,0,1,4.281,1.78,5.838,5.838,0,0,1,1.78,4.281v36.366a5.836,5.836,0,0,1-1.78,4.281,5.837,5.837,0,0,1-4.281,1.781H118.412l-5.607,8.334a3.021,3.021,0,0,1-1.1,1.023,2.952,2.952,0,0,1-1.4.341,2.952,2.952,0,0,1-1.4-.341,3.021,3.021,0,0,1-1.1-1.023l-5.607-8.334Z" transform="translate(-80 880)" fill="#f4f8fb"/>
</svg>
